<svg width="15" height="15" viewBox="0 0 15 15" fill="none" xmlns="http://www.w3.org/2000/svg">
<path d="M7.5 14.0625C5.75952 14.0625 4.09032 13.3711 2.85961 12.1404C1.6289 10.9097 0.9375 9.24048 0.9375 7.5C0.9375 5.75952 1.6289 4.09032 2.85961 2.85961C4.09032 1.6289 5.75952 0.9375 7.5 0.9375C9.24048 0.9375 10.9097 1.6289 12.1404 2.85961C13.3711 4.09032 14.0625 5.75952 14.0625 7.5C14.0625 9.24048 13.3711 10.9097 12.1404 12.1404C10.9097 13.3711 9.24048 14.0625 7.5 14.0625ZM7.5 15C9.48912 15 11.3968 14.2098 12.8033 12.8033C14.2098 11.3968 15 9.48912 15 7.5C15 5.51088 14.2098 3.60322 12.8033 2.1967C11.3968 0.790176 9.48912 0 7.5 0C5.51088 0 3.60322 0.790176 2.1967 2.1967C0.790176 3.60322 0 5.51088 0 7.5C0 9.48912 0.790176 11.3968 2.1967 12.8033C3.60322 14.2098 5.51088 15 7.5 15Z" fill="#F08557"/>
<path d="M7.5 3.75C7.62432 3.75 7.74355 3.79939 7.83146 3.88729C7.91936 3.9752 7.96875 4.09443 7.96875 4.21875V7.03125H10.7812C10.9056 7.03125 11.0248 7.08064 11.1127 7.16854C11.2006 7.25645 11.25 7.37568 11.25 7.5C11.25 7.62432 11.2006 7.74355 11.1127 7.83146C11.0248 7.91936 10.9056 7.96875 10.7812 7.96875H7.96875V10.7812C7.96875 10.9056 7.91936 11.0248 7.83146 11.1127C7.74355 11.2006 7.62432 11.25 7.5 11.25C7.37568 11.25 7.25645 11.2006 7.16854 11.1127C7.08064 11.0248 7.03125 10.9056 7.03125 10.7812V7.96875H4.21875C4.09443 7.96875 3.9752 7.91936 3.88729 7.83146C3.79939 7.74355 3.75 7.62432 3.75 7.5C3.75 7.37568 3.79939 7.25645 3.88729 7.16854C3.9752 7.08064 4.09443 7.03125 4.21875 7.03125H7.03125V4.21875C7.03125 4.09443 7.08064 3.9752 7.16854 3.88729C7.25645 3.79939 7.37568 3.75 7.5 3.75Z" fill="#F08557"/>
</svg>
