<svg width="15" height="15" viewBox="0 0 15 15" fill="none" xmlns="http://www.w3.org/2000/svg">
<path d="M13.9286 13.6607V4.55357C13.9286 4.48103 13.9021 4.41825 13.8491 4.36523C13.796 4.31222 13.7333 4.28571 13.6607 4.28571H4.55357C4.48103 4.28571 4.41825 4.31222 4.36523 4.36523C4.31222 4.41825 4.28571 4.48103 4.28571 4.55357V13.6607C4.28571 13.7333 4.31222 13.796 4.36523 13.8491C4.41825 13.9021 4.48103 13.9286 4.55357 13.9286H13.6607C13.7333 13.9286 13.796 13.9021 13.8491 13.8491C13.9021 13.796 13.9286 13.7333 13.9286 13.6607ZM15 4.55357V13.6607C15 14.029 14.8689 14.3443 14.6066 14.6066C14.3443 14.8689 14.029 15 13.6607 15H4.55357C4.18527 15 3.86998 14.8689 3.6077 14.6066C3.34542 14.3443 3.21429 14.029 3.21429 13.6607V4.55357C3.21429 4.18527 3.34542 3.86998 3.6077 3.6077C3.86998 3.34542 4.18527 3.21429 4.55357 3.21429H13.6607C14.029 3.21429 14.3443 3.34542 14.6066 3.6077C14.8689 3.86998 15 4.18527 15 4.55357ZM11.7857 1.33929V2.67857H10.7143V1.33929C10.7143 1.26674 10.6878 1.20396 10.6348 1.15095C10.5818 1.09794 10.519 1.07143 10.4464 1.07143H1.33929C1.26674 1.07143 1.20396 1.09794 1.15095 1.15095C1.09794 1.20396 1.07143 1.26674 1.07143 1.33929V10.4464C1.07143 10.519 1.09794 10.5818 1.15095 10.6348C1.20396 10.6878 1.26674 10.7143 1.33929 10.7143H2.67857V11.7857H1.33929C0.970982 11.7857 0.655692 11.6546 0.393415 11.3923C0.131138 11.13 0 10.8147 0 10.4464V1.33929C0 0.970982 0.131138 0.655692 0.393415 0.393415C0.655692 0.131138 0.970982 0 1.33929 0H10.4464C10.8147 0 11.13 0.131138 11.3923 0.393415C11.6546 0.655692 11.7857 0.970982 11.7857 1.33929Z" fill="#F08557"/>
</svg>
