<svg width="19" height="18" viewBox="0 0 19 18" fill="none" xmlns="http://www.w3.org/2000/svg">
<path d="M17.8155 3.62219L14.5544 0.344414C14.3389 0.130006 14.0472 0.00964355 13.7433 0.00964355C13.4393 0.00964355 13.1476 0.130006 12.9321 0.344414L1.37103 11.8889L0.315477 16.4444C0.279064 16.6109 0.280313 16.7835 0.319131 16.9495C0.357949 17.1155 0.433357 17.2707 0.539846 17.4038C0.646335 17.5369 0.781214 17.6446 0.934631 17.7189C1.08805 17.7932 1.25613 17.8323 1.42659 17.8333C1.50602 17.8413 1.58605 17.8413 1.66548 17.8333L6.27103 16.7777L17.8155 5.24441C18.0299 5.02892 18.1502 4.73729 18.1502 4.4333C18.1502 4.12931 18.0299 3.83769 17.8155 3.62219ZM5.71548 15.7777L1.39881 16.6833L2.38214 12.45L11.0321 3.8333L14.3655 7.16664L5.71548 15.7777ZM15.1099 6.36108L11.7766 3.02775L13.7099 1.10553L16.9877 4.43886L15.1099 6.36108Z" fill="#F08557"/>
</svg>
