<svg xmlns="http://www.w3.org/2000/svg" width="15.417" height="15.415" viewBox="0 0 15.417 15.415">
  <path id="location-arrow" d="M15.341,1.018,8.334,15.031a.642.642,0,0,1-.624.383.927.927,0,0,1-.164-.022.661.661,0,0,1-.389-.246.687.687,0,0,1-.147-.432V8.408H.7A.69.69,0,0,1,.271,8.26a.661.661,0,0,1-.246-.388.709.709,0,0,1,.044-.46.66.66,0,0,1,.317-.328L14.4.077A.658.658,0,0,1,14.717,0a.651.651,0,0,1,.493.208.652.652,0,0,1,.2.378A.667.667,0,0,1,15.341,1.018Z" transform="translate(-0.005)" fill="#fff"/>
</svg>
