<svg width="16" height="16" viewBox="0 0 16 16" fill="none" xmlns="http://www.w3.org/2000/svg">
<path d="M15.1139 8.67808C14.9277 8.86409 14.7033 8.95709 14.4408 8.95709C14.1782 8.95709 13.9562 8.86648 13.7747 8.68524L13.5599 8.47061V14.4658C13.5599 14.7138 13.4716 14.9284 13.2949 15.1097C13.1183 15.2909 12.901 15.3815 12.6432 15.3815H9.89323V11.2607C9.89323 11.1367 9.84787 11.0294 9.75716 10.9388C9.66645 10.8482 9.55903 10.8029 9.4349 10.8029H6.6849C6.56076 10.8029 6.45334 10.8482 6.36263 10.9388C6.27192 11.0294 6.22656 11.1367 6.22656 11.2607V15.3815H3.47656C3.21875 15.3815 3.00152 15.2909 2.82487 15.1097C2.64822 14.9284 2.5599 14.7138 2.5599 14.4658V8.47061L2.34505 8.68524C2.16363 8.86648 1.94162 8.95709 1.67904 8.95709C1.41645 8.95709 1.19206 8.86409 1.00586 8.67808C0.819661 8.49207 0.726562 8.26791 0.726562 8.00559C0.726562 7.74328 0.817274 7.5215 0.998698 7.34026L7.35807 0.987382C7.54905 0.796605 7.78299 0.705986 8.0599 0.715525C8.33681 0.705986 8.57075 0.796605 8.76172 0.987382L15.1211 7.34026C15.3025 7.5215 15.3932 7.74328 15.3932 8.00559C15.3932 8.26791 15.3001 8.49207 15.1139 8.67808Z" fill="#F08557"/>
</svg>
