<svg width="20" height="20" viewBox="0 0 20 20" fill="none" xmlns="http://www.w3.org/2000/svg">
<path d="M5.83203 9.16797H7.4987V10.8346H5.83203V9.16797ZM5.83203 12.5013H7.4987V14.168H5.83203V12.5013ZM9.16536 9.16797H10.832V10.8346H9.16536V9.16797ZM9.16536 12.5013H10.832V14.168H9.16536V12.5013ZM12.4987 9.16797H14.1654V10.8346H12.4987V9.16797ZM12.4987 12.5013H14.1654V14.168H12.4987V12.5013Z" fill="#F08557"/>
<path d="M4.16667 18.3346H15.8333C16.7525 18.3346 17.5 17.5871 17.5 16.668V5.0013C17.5 4.08214 16.7525 3.33464 15.8333 3.33464H14.1667V1.66797H12.5V3.33464H7.5V1.66797H5.83333V3.33464H4.16667C3.2475 3.33464 2.5 4.08214 2.5 5.0013V16.668C2.5 17.5871 3.2475 18.3346 4.16667 18.3346ZM15.8333 6.66797L15.8342 16.668H4.16667V6.66797H15.8333Z" fill="#F08557"/>
</svg>
