<svg width="11" height="13" viewBox="0 0 11 13" fill="none" xmlns="http://www.w3.org/2000/svg">
<path d="M3.7652 10.0025C3.34545 10.0025 2.99805 9.65509 2.99805 9.23534V2.05622C2.99805 1.63646 3.34545 1.28906 3.7652 1.28906C4.18496 1.28906 4.53236 1.63646 4.53236 2.05622V9.24985C4.51784 9.66961 4.18496 10.0025 3.7652 10.0025Z" fill="#E12020"/>
<path d="M5.64606 10.0014C5.22631 10.0014 4.87891 9.65401 4.87891 9.23425L4.87902 0.767155C4.87902 0.3474 5.22642 0 5.64617 0C6.06593 0 6.41333 0.3474 6.41333 0.767155V9.24877C6.41322 9.66852 6.06581 10.0014 5.64606 10.0014H5.64606Z" fill="#E12020"/>
<path d="M7.54059 10.0025C7.12084 10.0025 6.77344 9.65509 6.77344 9.23534L6.77355 2.05622C6.77355 1.63646 7.12095 1.28906 7.54071 1.28906C7.96046 1.28906 8.30786 1.63646 8.30786 2.05622V9.24985C8.29323 9.66961 7.96034 10.0025 7.54059 10.0025H7.54059Z" fill="#E12020"/>
<path d="M9.42145 9.99938C9.0017 9.99938 8.6543 9.65198 8.6543 9.23222V3.34137C8.6543 2.92162 9.0017 2.57422 9.42145 2.57422C9.84121 2.57422 10.1886 2.92162 10.1886 3.34137V9.24674C10.1885 9.66649 9.84121 9.99938 9.42145 9.99938Z" fill="#E12020"/>
<path d="M4.86461 11.5629C4.47377 11.8669 3.89491 11.78 3.59094 11.3893L0.667151 7.59707C0.363187 7.20623 0.45007 6.62737 0.840793 6.3234C1.23163 6.01944 1.81049 6.10632 2.11446 6.49704L5.03825 10.2893C5.34222 10.6945 5.26985 11.259 4.86461 11.5629Z" fill="#E12020"/>
<path d="M10.1928 9.3669C10.1928 11.3493 8.58578 12.9565 6.60323 12.9565C4.62083 12.9565 3.01367 11.3493 3.01367 9.3669C3.01367 7.3845 4.6208 5.77734 6.60323 5.77734C8.58575 5.77734 10.1928 7.38447 10.1928 9.3669Z" fill="#E12020"/>
</svg>
