<svg width="15" height="15" viewBox="0 0 15 15" fill="none" xmlns="http://www.w3.org/2000/svg">
<path d="M7.5 2.3125C8.88438 2.3125 10.1875 2.85313 11.1687 3.83125C12.1469 4.8125 12.6875 6.11562 12.6875 7.5C12.6875 8.88438 12.1469 10.1875 11.1687 11.1687C10.1875 12.1469 8.88438 12.6875 7.5 12.6875C6.11562 12.6875 4.8125 12.1469 3.83125 11.1687C2.85313 10.1875 2.3125 8.88438 2.3125 7.5C2.3125 6.11562 2.85313 4.8125 3.83125 3.83125C4.8125 2.85313 6.11562 2.3125 7.5 2.3125ZM7.5 1C3.90937 1 1 3.90937 1 7.5C1 11.0906 3.90937 14 7.5 14C11.0906 14 14 11.0906 14 7.5C14 3.90937 11.0906 1 7.5 1Z" fill="#F08457"/>
<path d="M8.11523 10.5469H6.88477V6.88477H8.11523V10.5469ZM8.11523 5.68359H6.88477V4.45312H8.11523V5.68359Z" fill="#F08457"/>
</svg>
