<svg width="18" height="18" viewBox="0 0 18 18" fill="none" xmlns="http://www.w3.org/2000/svg">
<path d="M9.0013 15.668C10.7694 15.668 12.4651 14.9656 13.7153 13.7153C14.9656 12.4651 15.668 10.7694 15.668 9.0013C15.668 7.23319 14.9656 5.5375 13.7153 4.28726C12.4651 3.03701 10.7694 2.33464 9.0013 2.33464C7.23319 2.33464 5.5375 3.03701 4.28726 4.28726C3.03701 5.5375 2.33464 7.23319 2.33464 9.0013C2.33464 10.7694 3.03701 12.4651 4.28726 13.7153C5.5375 14.9656 7.23319 15.668 9.0013 15.668ZM9.0013 17.3346C4.3988 17.3346 0.667969 13.6038 0.667969 9.0013C0.667969 4.3988 4.3988 0.667969 9.0013 0.667969C13.6038 0.667969 17.3346 4.3988 17.3346 9.0013C17.3346 13.6038 13.6038 17.3346 9.0013 17.3346ZM8.16797 8.16797V13.168H9.83463V8.16797H8.16797ZM8.16797 4.83464H9.83463V6.5013H8.16797V4.83464Z" fill="#2E2E2E"/>
</svg>
