<svg width="20" height="20" viewBox="0 0 20 20" fill="none" xmlns="http://www.w3.org/2000/svg">
<path d="M5.625 8.75C5.00693 8.75 4.40275 8.56672 3.88884 8.22334C3.37494 7.87996 2.9744 7.39191 2.73788 6.82089C2.50135 6.24987 2.43947 5.62154 2.56005 5.01534C2.68063 4.40915 2.97825 3.85233 3.41529 3.41529C3.85233 2.97825 4.40915 2.68063 5.01534 2.56005C5.62154 2.43947 6.24987 2.50135 6.82089 2.73788C7.39191 2.9744 7.87996 3.37494 8.22334 3.88884C8.56672 4.40275 8.75 5.00693 8.75 5.625C8.74917 6.45355 8.41967 7.24792 7.8338 7.8338C7.24792 8.41967 6.45355 8.74917 5.625 8.75Z" fill="#D6693B"/>
<path d="M2.5 16.6163L16.6156 2.5L17.5 3.38437L3.38375 17.5L2.5 16.6163Z" fill="#D6693B"/>
<path d="M14.375 17.5C13.7569 17.5 13.1527 17.3167 12.6388 16.9733C12.1249 16.63 11.7244 16.1419 11.4879 15.5709C11.2514 14.9999 11.1895 14.3715 11.31 13.7653C11.4306 13.1592 11.7283 12.6023 12.1653 12.1653C12.6023 11.7283 13.1592 11.4306 13.7653 11.31C14.3715 11.1895 14.9999 11.2514 15.5709 11.4879C16.1419 11.7244 16.63 12.1249 16.9733 12.6388C17.3167 13.1527 17.5 13.7569 17.5 14.375C17.4992 15.2035 17.1697 15.9979 16.5838 16.5838C15.9979 17.1697 15.2035 17.4992 14.375 17.5Z" fill="#D6693B"/>
</svg>
