<svg width="15" height="11" viewBox="0 0 15 11" fill="none" xmlns="http://www.w3.org/2000/svg">
<path d="M4.96498 9.72372C4.49853 9.72372 4.12007 9.34605 4.12007 8.87881V5.49922C4.12007 5.03277 4.49865 4.65431 4.96498 4.65431C5.43143 4.65431 5.80989 5.03289 5.80989 5.49922V8.87881C5.80989 9.34603 5.43131 9.72372 4.96498 9.72372ZM4.96498 9.72372C4.74865 9.72372 4.53233 9.64087 4.36762 9.47617L0.98803 6.09658C0.657636 5.76619 0.657636 5.23217 0.98803 4.90186C1.31842 4.57147 1.85244 4.57147 2.18275 4.90186L4.96512 7.68424L7.7475 4.90186C8.07789 4.57147 8.61191 4.57147 8.94222 4.90186C9.27261 5.23226 9.27261 5.76627 8.94222 6.09658L5.56262 9.47617C5.39782 9.64098 5.18159 9.72372 4.96527 9.72372H4.96498ZM9.18983 10.5686C8.72261 10.5686 8.34491 10.191 8.34491 9.72372C8.34491 9.2565 8.72258 8.87881 9.18983 8.87881C11.0538 8.87881 12.5694 7.36295 12.5694 5.49922C12.5694 3.63523 11.0536 2.11963 9.18983 2.11963C7.32584 2.11963 5.81024 3.63549 5.81024 5.49922C5.81024 5.96566 5.43165 6.34413 4.96532 6.34413C4.49888 6.34413 4.12041 5.96555 4.12041 5.49922C4.12041 2.70337 6.39418 0.429688 9.18994 0.429688C11.9857 0.429688 14.2595 2.70345 14.2595 5.49922C14.2595 8.29498 11.9857 10.5687 9.18994 10.5687L9.18983 10.5686Z" fill="#F08457"/>
</svg>
