<svg width="21" height="21" viewBox="0 0 21 21" fill="none" xmlns="http://www.w3.org/2000/svg">
<path d="M12.4688 15.75H15.0938V18.375H12.4688V15.75Z" fill="#A4A4A4"/>
<path d="M17.0625 15.75H19.6875V18.375H17.0625V15.75Z" fill="#A4A4A4"/>
<path d="M12.4688 11.1562H15.0938V13.7812H12.4688V11.1562Z" fill="#A4A4A4"/>
<path d="M17.0625 11.1562H19.6875V13.7812H17.0625V11.1562Z" fill="#A4A4A4"/>
<path d="M11.1562 15.75H2.625V6.5625H18.375V9.84375H19.6875V6.5625C19.6872 6.21451 19.5488 5.88087 19.3027 5.63481C19.0566 5.38874 18.723 5.25035 18.375 5.25H14.4375V2.625C14.4372 2.27701 14.2988 1.94337 14.0527 1.69731C13.8066 1.45124 13.473 1.31285 13.125 1.3125H7.875C7.52701 1.31285 7.19337 1.45124 6.94731 1.69731C6.70124 1.94337 6.56285 2.27701 6.5625 2.625V5.25H2.625C2.27701 5.25035 1.94337 5.38874 1.69731 5.63481C1.45124 5.88087 1.31285 6.21451 1.3125 6.5625V15.75C1.31285 16.098 1.45124 16.4316 1.69731 16.6777C1.94337 16.9238 2.27701 17.0622 2.625 17.0625H11.1562V15.75ZM7.875 2.625H13.125V5.25H7.875V2.625Z" fill="#A4A4A4"/>
</svg>
