<svg width="21" height="21" viewBox="0 0 21 21" fill="none" xmlns="http://www.w3.org/2000/svg">
<path d="M5.0467 10.4947L11.7493 3.75508C12.245 3.25624 12.245 2.44961 11.7493 1.95608C11.2536 1.46256 10.452 1.46256 9.95632 1.95608L2.36249 9.59251C1.8826 10.0754 1.87205 10.8502 2.32557 11.349L9.95105 19.0385C10.1989 19.288 10.5259 19.41 10.8475 19.41C11.1692 19.41 11.4962 19.288 11.744 19.0385C12.2397 18.5397 12.2397 17.7331 11.744 17.2395L5.0467 10.4947Z" fill="white"/>
<path d="M12.3397 10.4947L19.0423 3.75508C19.538 3.25624 19.538 2.44961 19.0423 1.95608C18.5466 1.46256 17.745 1.46256 17.2493 1.95608L9.65546 9.59251C9.17557 10.0754 9.16502 10.8502 9.61854 11.349L17.244 19.0385C17.4919 19.288 17.8188 19.41 18.1405 19.41C18.4622 19.41 18.7892 19.288 19.037 19.0385C19.5327 18.5397 19.5327 17.7331 19.037 17.2395L12.3397 10.4947Z" fill="white"/>
</svg>
