<svg width="21" height="21" viewBox="0 0 21 21" fill="none" xmlns="http://www.w3.org/2000/svg">
<path d="M15.9533 10.4947L9.25069 3.75508C8.75498 3.25624 8.75498 2.44961 9.25069 1.95608C9.7464 1.46256 10.548 1.46256 11.0437 1.95608L18.6375 9.59251C19.1174 10.0754 19.1279 10.8502 18.6744 11.349L11.0489 19.0385C10.8011 19.288 10.4741 19.41 10.1525 19.41C9.83077 19.41 9.50382 19.288 9.25596 19.0385C8.76025 18.5397 8.76025 17.7331 9.25596 17.2395L15.9533 10.4947Z" fill="white"/>
<path d="M8.66033 10.4947L1.95772 3.75508C1.46201 3.25624 1.46201 2.44961 1.95772 1.95608C2.45343 1.46256 3.255 1.46256 3.75071 1.95608L11.3445 9.59251C11.8244 10.0754 11.835 10.8502 11.3815 11.349L3.75598 19.0385C3.50813 19.288 3.18117 19.41 2.85949 19.41C2.5378 19.41 2.21085 19.288 1.96299 19.0385C1.46728 18.5397 1.46728 17.7331 1.96299 17.2395L8.66033 10.4947Z" fill="white"/>
</svg>
