<svg width="15" height="18" viewBox="0 0 15 18" fill="none" xmlns="http://www.w3.org/2000/svg">
<path fill-rule="evenodd" clip-rule="evenodd" d="M12.5 7.5C13.163 7.5 13.7989 7.76339 14.2678 8.23223C14.7366 8.70107 15 9.33696 15 10V15C15 15.663 14.7366 16.2989 14.2678 16.7678C13.7989 17.2366 13.163 17.5 12.5 17.5H2.5C1.83696 17.5 1.20107 17.2366 0.732233 16.7678C0.263392 16.2989 0 15.663 0 15V10C0 9.33696 0.263392 8.70107 0.732233 8.23223C1.20107 7.76339 1.83696 7.5 2.5 7.5V5C2.5 3.67392 3.02678 2.40215 3.96447 1.46447C4.90215 0.526784 6.17392 0 7.5 0C8.82608 0 10.0979 0.526784 11.0355 1.46447C11.9732 2.40215 12.5 3.67392 12.5 5V7.5ZM7.5 1.66667C8.38406 1.66667 9.2319 2.01786 9.85702 2.64298C10.4821 3.2681 10.8333 4.11594 10.8333 5V7.5H4.16667V5C4.16667 4.11594 4.51786 3.2681 5.14298 2.64298C5.7681 2.01786 6.61594 1.66667 7.5 1.66667ZM12.5 9.16667H2.5C2.27899 9.16667 2.06702 9.25446 1.91074 9.41074C1.75446 9.56702 1.66667 9.77899 1.66667 10V15C1.66667 15.221 1.75446 15.433 1.91074 15.5893C2.06702 15.7455 2.27899 15.8333 2.5 15.8333H12.5C12.721 15.8333 12.933 15.7455 13.0893 15.5893C13.2455 15.433 13.3333 15.221 13.3333 15V10C13.3333 9.77899 13.2455 9.56702 13.0893 9.41074C12.933 9.25446 12.721 9.16667 12.5 9.16667Z" fill="#F08557"/>
</svg>
