<svg width="25" height="25" viewBox="0 0 25 25" fill="none" xmlns="http://www.w3.org/2000/svg">
<path d="M15.625 4.6875H4.29688C3.77887 4.6875 3.28209 4.89328 2.91581 5.25956C2.54953 5.62584 2.34375 6.12262 2.34375 6.64062V18.3594C2.34375 18.8774 2.54953 19.3742 2.91581 19.7404C3.28209 20.1067 3.77887 20.3125 4.29688 20.3125H20.6411C21.1591 20.3125 21.6559 20.1067 22.0222 19.7404C22.3885 19.3742 22.5942 18.8774 22.5942 18.3594V11.6699" stroke="#F08557" stroke-width="1.15" stroke-linecap="round" stroke-linejoin="round"/>
<path d="M5.46875 7.8125L12.5 13.2812L16.748 10.0747" stroke="#F08557" stroke-width="1.35" stroke-linecap="round" stroke-linejoin="round"/>
<path d="M21.0913 8.59375C22.3844 8.59375 23.4326 7.54551 23.4326 6.25244C23.4326 4.95937 22.3844 3.91113 21.0913 3.91113C19.7982 3.91113 18.75 4.95937 18.75 6.25244C18.75 7.54551 19.7982 8.59375 21.0913 8.59375Z" fill="#D6693B"/>
</svg>
