<svg width="19" height="19" viewBox="0 0 19 19" fill="none" xmlns="http://www.w3.org/2000/svg">
<path fill-rule="evenodd" clip-rule="evenodd" d="M14.2237 12.852C15.433 11.2923 16.0029 9.33027 15.8175 7.3651C15.6321 5.39993 14.7053 3.57923 13.2257 2.2734C11.7461 0.967566 9.82471 0.274697 7.85254 0.335749C5.88037 0.3968 4.00552 1.20719 2.60942 2.60204C1.21209 3.99787 0.399382 5.87419 0.336897 7.84864C0.274411 9.8231 0.966855 11.7471 2.27312 13.2285C3.57938 14.71 5.40116 15.6374 7.3672 15.8218C9.33323 16.0062 11.2956 15.4337 12.8543 14.2209L12.896 14.2646L17.0099 18.381C17.1 18.4712 17.2069 18.5427 17.3247 18.5915C17.4424 18.6403 17.5686 18.6654 17.696 18.6654C17.8234 18.6654 17.9496 18.6403 18.0673 18.5915C18.1851 18.5427 18.292 18.4712 18.3821 18.381C18.4722 18.2909 18.5437 18.1839 18.5925 18.0661C18.6412 17.9483 18.6663 17.8221 18.6663 17.6946C18.6663 17.5672 18.6412 17.4409 18.5925 17.3232C18.5437 17.2054 18.4722 17.0984 18.3821 17.0082L14.2673 12.8927C14.2531 12.8788 14.2386 12.8652 14.2237 12.852ZM12.2104 3.97485C12.7579 4.51376 13.1934 5.1558 13.4917 5.86392C13.7899 6.57204 13.9451 7.33224 13.9482 8.10065C13.9514 8.86907 13.8024 9.6305 13.5099 10.341C13.2174 11.0516 12.7872 11.6971 12.244 12.2405C11.7009 12.7838 11.0556 13.2142 10.3453 13.5069C9.63508 13.7995 8.87395 13.9485 8.10584 13.9454C7.33772 13.9423 6.57783 13.787 5.86999 13.4886C5.16215 13.1902 4.52037 12.7546 3.98167 12.2068C2.90512 11.1122 2.30457 9.63627 2.31082 8.10065C2.31707 6.56503 2.92962 5.09409 4.01504 4.00823C5.10047 2.92237 6.57083 2.30958 8.10584 2.30332C9.64085 2.29707 11.1161 2.89787 12.2104 3.97485Z" fill="#F08557"/>
</svg>
