<svg width="21" height="21" viewBox="0 0 21 21" fill="none" xmlns="http://www.w3.org/2000/svg">
<path d="M17.7174 10.9987V10.5V9.99468L18.9774 8.89218C19.2096 8.68746 19.362 8.40723 19.4077 8.101C19.4533 7.79478 19.3892 7.48228 19.2267 7.21874L17.678 4.59374C17.5629 4.39441 17.3974 4.22885 17.1982 4.11367C16.9989 3.99849 16.7728 3.93773 16.5427 3.93749C16.4 3.9364 16.2582 3.95856 16.1227 4.00312L14.528 4.54124C14.2527 4.35828 13.9655 4.19386 13.6683 4.04905L13.3336 2.3953C13.2736 2.09317 13.1092 1.82177 12.8693 1.62861C12.6293 1.43545 12.3291 1.33284 12.0211 1.33874H8.94986C8.64188 1.33284 8.34164 1.43545 8.10169 1.62861C7.86174 1.82177 7.69737 2.09317 7.63736 2.3953L7.30267 4.04905C7.00338 4.19382 6.714 4.35825 6.43642 4.54124L4.87455 3.97687C4.73759 3.94118 4.59575 3.92789 4.45455 3.93749C4.22438 3.93773 3.99833 3.99849 3.79906 4.11367C3.59979 4.22885 3.43432 4.39441 3.31923 4.59374L1.77048 7.21874C1.61731 7.48189 1.56039 7.79011 1.60947 8.09061C1.65856 8.39111 1.8106 8.6652 2.03955 8.86593L3.27986 10.0012V11.0053L2.03955 12.1078C1.80413 12.3099 1.64793 12.5889 1.59868 12.8953C1.54942 13.2016 1.61029 13.5155 1.77048 13.7812L3.31923 16.4062C3.43432 16.6056 3.59979 16.7711 3.79906 16.8863C3.99833 17.0015 4.22438 17.0623 4.45455 17.0625C4.59718 17.0636 4.73904 17.0414 4.87455 16.9969L6.46923 16.4587C6.74456 16.6417 7.03176 16.8061 7.32892 16.9509L7.66361 18.6047C7.72362 18.9068 7.88799 19.1782 8.12794 19.3714C8.36789 19.5645 8.66813 19.6671 8.97611 19.6612H12.0736C12.3816 19.6671 12.6818 19.5645 12.9218 19.3714C13.1617 19.1782 13.3261 18.9068 13.3861 18.6047L13.7208 16.9509C14.0201 16.8062 14.3095 16.6417 14.587 16.4587L16.1752 16.9969C16.3107 17.0414 16.4525 17.0636 16.5952 17.0625C16.8253 17.0623 17.0514 17.0015 17.2507 16.8863C17.4499 16.7711 17.6154 16.6056 17.7305 16.4062L19.2267 13.7812C19.3799 13.5181 19.4368 13.2099 19.3877 12.9094C19.3387 12.6089 19.1866 12.3348 18.9577 12.1341L17.7174 10.9987ZM16.5427 15.75L14.2917 14.9887C13.7648 15.4351 13.1626 15.7839 12.5133 16.0191L12.0474 18.375H8.94986L8.48392 16.0453C7.83976 15.8035 7.2408 15.4552 6.71205 15.015L4.45455 15.75L2.9058 13.125L4.6908 11.55C4.56945 10.8707 4.56945 10.1752 4.6908 9.49593L2.9058 7.87499L4.45455 5.24999L6.70548 6.01124C7.23241 5.56492 7.83463 5.21603 8.48392 4.98093L8.94986 2.62499H12.0474L12.5133 4.95468C13.1575 5.19646 13.7564 5.54474 14.2852 5.98499L16.5427 5.24999L18.0914 7.87499L16.3064 9.44999C16.4278 10.1293 16.4278 10.8247 16.3064 11.5041L18.0914 13.125L16.5427 15.75Z" fill="#A4A4A4"/>
<path d="M10.5 14.4375C9.72124 14.4375 8.95996 14.2066 8.31244 13.7739C7.66493 13.3413 7.16025 12.7263 6.86223 12.0068C6.56421 11.2873 6.48623 10.4956 6.63816 9.73183C6.79009 8.96803 7.1651 8.26644 7.71577 7.71577C8.26644 7.1651 8.96803 6.79009 9.73183 6.63816C10.4956 6.48623 11.2873 6.56421 12.0068 6.86223C12.7263 7.16025 13.3413 7.66492 13.7739 8.31244C14.2066 8.95996 14.4375 9.72124 14.4375 10.5C14.4428 11.0185 14.3445 11.5329 14.1485 12.013C13.9525 12.4931 13.6627 12.9293 13.296 13.296C12.9293 13.6627 12.4931 13.9525 12.013 14.1485C11.5329 14.3445 11.0185 14.4428 10.5 14.4375ZM10.5 7.875C10.1531 7.86692 9.80811 7.92929 9.48597 8.05835C9.16384 8.18741 8.87123 8.38047 8.62585 8.62585C8.38047 8.87123 8.18741 9.16384 8.05835 9.48597C7.92929 9.80811 7.86692 10.1531 7.875 10.5C7.86692 10.8469 7.92929 11.1919 8.05835 11.514C8.18741 11.8362 8.38047 12.1288 8.62585 12.3742C8.87123 12.6195 9.16384 12.8126 9.48597 12.9417C9.80811 13.0707 10.1531 13.1331 10.5 13.125C10.8469 13.1331 11.1919 13.0707 11.514 12.9417C11.8362 12.8126 12.1288 12.6195 12.3742 12.3742C12.6195 12.1288 12.8126 11.8362 12.9417 11.514C13.0707 11.1919 13.1331 10.8469 13.125 10.5C13.1331 10.1531 13.0707 9.80811 12.9417 9.48597C12.8126 9.16384 12.6195 8.87123 12.3742 8.62585C12.1288 8.38047 11.8362 8.18741 11.514 8.05835C11.1919 7.92929 10.8469 7.86692 10.5 7.875Z" fill="#A4A4A4"/>
</svg>
