<svg width="20" height="20" viewBox="0 0 20 20" fill="none" xmlns="http://www.w3.org/2000/svg">
<path d="M3.75003 18.4375C3.74815 18.6839 3.84407 18.9209 4.01673 19.0967C4.1894 19.2724 4.42472 19.3725 4.67108 19.375H15.329C15.5753 19.3725 15.8107 19.2724 15.9833 19.0967C16.156 18.9209 16.2519 18.6839 16.25 18.4375V5.9375H3.75003V18.4375ZM5.00003 7.1875H15V18.125H5.00003V7.1875Z" fill="#E81C1C"/>
<path d="M6.5625 8.4375H7.8125V16.25H6.5625V8.4375Z" fill="#E81C1C"/>
<path d="M9.375 8.4375H10.625V16.25H9.375V8.4375Z" fill="#E81C1C"/>
<path d="M12.1875 8.4375H13.4375V16.25H12.1875V8.4375Z" fill="#E81C1C"/>
<path d="M12.8125 3.4375V1.5625C12.8125 1.0368 12.4419 0.625 11.9688 0.625H8.03125C7.55813 0.625 7.1875 1.0368 7.1875 1.5625V3.4375H2.5V4.6875H17.5V3.4375H12.8125ZM8.4375 1.875H11.5625V3.4375H8.4375V1.875Z" fill="#E81C1C"/>
</svg>
